<svg xmlns="http://www.w3.org/2000/svg" viewBox="0 0 1073.58 526.97"><defs><style>.cls-1{fill:#fff;}</style></defs><g id="Layer_2" data-name="Layer 2"><g id="Object"><path class="cls-1" d="M1064.17,1.59,977,0a30.19,30.19,0,0,0-14.8,3.56L524.54,238.31S495.9,253,498.23,253l-101.8-13,47.78,29.14L240,229.28a107.25,107.25,0,0,1-13.86-3.81l-17.67-6.17L407.8,256.59l-116.16-50.5,54.1,15.54,51.2-33c33.8-17.48-43.12-19.81-43.12-19.81l-72.38,34.29c-1.15-.55-2.27-1.11-3.35-1.7A75.55,75.55,0,0,1,251.26,177L179.92,76.91a22.53,22.53,0,0,0-18.34-9.45H118.41l69.92,149.17,3.3,27.11c-9.33,0-28,10.49-28,10.49L50.22,310.45l45.07,16a30.45,30.45,0,0,0,20.35-.69L238.42,276l-42.15-25.25,51.5,23,104.59,47.62L3.66,491.53a6.52,6.52,0,0,0,.88,12.07l61.88,19.72a77.54,77.54,0,0,0,56-3.48L402.67,390.39,538,417.8l-29.79,57s-28-7.79-54.21-5.23a5.17,5.17,0,0,0-4.65,5.16v11A14,14,0,0,0,455.13,497l22.64,16.54a14,14,0,0,0,4.38,2.16c6,1.75,21.42,5.75,32.5,3.91,0,0,6.19-16.27-53.54-41.33,44,8.74,66.94,26.76,66.94,26.76,2.33-8.16-9.25-22.73-9.25-22.73l34.35-61.48,19.06,3.86C641.49,446,692.3,450.17,724.86,449.36L736.26,463l-19.41,1s-6.71,7.86,0,21.56c0,0,23.89,25.35,58,23.89,0,0,5.16-3,4.33-4.23-10.09-15.54-52.82-32.63-52.82-32.63s29.53-1.17,60.72,24.94c0,0-2-23-32.92-32.66l7.32-19.2a73.8,73.8,0,0,0,7.25-1.78c18.64-4.66,33.79-16.31,33.79-16.31l3.5-12.82a44.31,44.31,0,0,0,10.69-10.29l32.44-7.54a3.29,3.29,0,0,0,1.17-5.87l-27.15-18.17a5.92,5.92,0,0,0-7.46.74c-3.65,3.63-8.39,11.87-9.32,30.39-5-22.32,2.21-33.32,7-37.9a5.87,5.87,0,0,1,7-.8l7.72,4.47A126.72,126.72,0,0,0,827,350.65c-15.08-14.42-45.29-29.22-68.83-39.4l90.7-159L1069,19.35C1077.16,14.39,1073.77,1.76,1064.17,1.59ZM412,386.06,453,367.16l84.26,45.08ZM746,462.53l-2.83.14.21-.14-10.9-13.46c7.43-.38,13.71-1,18.85-1.72Zm2.52-155.36c-13.42-5.55-22.91-9-22.91-9l-33.53-51.37,4.45-2.54,130.8-79Zm-66.83-62.82c7.68,8.54,19.57,27.35,35.54,55.94,0,0-52.2,25.67-78.47,44.16a43.27,43.27,0,0,1-24.94,7.92H602.92l-81.58-14.5,66.8-31.46,22.44,37s-15.16-45-15.15-46.9a12.6,12.6,0,0,0-2.9-7.36c-1.13-1.49-342.65,170.22-487.74,225C102.36,512,584.22,281.64,584.22,281.64l85.6-44.28s391.77-224.92,397-223.18C1068.42,14.71,680.18,242.71,681.67,244.35Z"/><path class="cls-1" d="M803.44,309.11c22.26-9.28,42.87-7.61,55.34,2.21-8.19-16.65-31.11-22.35-56.47-12.1S757.5,334.11,754,358.49C762.94,337.37,781.19,318.39,803.44,309.11Z"/><path class="cls-1" d="M803.18,318c19.82-8.69,38.18-7.5,49.3,1.17-7.31-14.89-27.74-19.64-50.31-10s-39.91,32-43,53.72C767.1,344,783.36,326.71,803.18,318Z"/><path class="cls-1" d="M803.42,325.67c16.22-7.42,31.27-6.64,40.39.47-6-12.3-22.74-16-41.22-7.72s-32.68,26.8-35.25,44.56A73.44,73.44,0,0,1,803.42,325.67Z"/><path class="cls-1" d="M842.2,446.21c-22.25,9.28-42.86,7.61-55.33-2.21,8.18,16.65,31.11,22.35,56.46,12.1s44.82-34.89,48.31-59.27C882.71,418,864.46,436.93,842.2,446.21Z"/><path class="cls-1" d="M842.47,437.3c-19.82,8.69-38.18,7.51-49.3-1.16,7.31,14.89,27.73,19.64,50.31,10s39.91-32,43-53.71C878.54,411.36,862.29,428.61,842.47,437.3Z"/><path class="cls-1" d="M842.23,429.65c-16.23,7.42-31.27,6.64-40.4-.47,6,12.3,22.75,16,41.23,7.72s32.68-26.8,35.25-44.56A73.44,73.44,0,0,1,842.23,429.65Z"/></g></g></svg>